<?xml version="1.0" encoding="utf-8"?>
<!-- Generator: Adobe Illustrator 25.3.0, SVG Export Plug-In . SVG Version: 6.00 Build 0)  -->
<svg version="1.1" id="Ebene_1" xmlns="http://www.w3.org/2000/svg" xmlns:xlink="http://www.w3.org/1999/xlink" x="0px" y="0px"
	 viewBox="0 0 32 32" style="enable-background:new 0 0 32 32;" xml:space="preserve">
<style type="text/css">
	.st0{fill:#0D0D0D;stroke:#000000;stroke-width:0.1;stroke-miterlimit:10;}
</style>
<path class="st0" d="M16.6,8.6c0.4,0,0.8-0.3,0.8-0.8C17.3,7.4,17,7,16.6,7c-0.4,0-0.8,0.3-0.8,0.8C15.8,8.2,16.1,8.6,16.6,8.6
	 M13.5,8.6c0.4,0,0.8-0.3,0.8-0.8c0-0.4-0.3-0.8-0.8-0.8c-0.4,0-0.8,0.3-0.8,0.8C12.7,8.2,13.1,8.6,13.5,8.6 M17.6,10.5
	c0.1-0.3,0-0.6-0.3-0.7c-0.3-0.1-0.6,0-0.7,0.3c-0.2,0.6-0.8,1-1.5,1c-0.7,0-1.3-0.4-1.5-1c-0.1-0.3-0.4-0.4-0.7-0.3
	c-0.3,0.1-0.4,0.4-0.3,0.7c0.4,1.1,1.4,1.7,2.6,1.7C16.1,12.2,17.1,11.5,17.6,10.5 M10.6,9c0-2.4,2-4.4,4.4-4.4c2.4,0,4.4,2,4.4,4.4
	c0,2.4-2,4.4-4.4,4.4C12.6,13.4,10.6,11.4,10.6,9 M20.5,9c0-3.1-2.5-5.5-5.5-5.5C12,3.4,9.5,5.9,9.5,9c0,3.1,2.5,5.5,5.5,5.5
	C18.1,14.5,20.5,12,20.5,9 M24.1,20.7c0,2.7,0.1,7.7-1.7,9.5c-0.3,0.3-0.7,0.5-1.1,0.5h-0.5c-1.9-0.2-2.3-1.9-2.3-4.9v-0.6H6.2l0-20
	c0.2-2.2,2-4,4.1-4h15.2c-1,1-1.5,2.8-1.5,5.4v13.2C24.1,20.1,24.1,20.4,24.1,20.7 M6.5,30.8c-2.5,0-3.8-1.4-4-4.3h3.3v0h11.4
	c0,1.4,0.1,3.1,1,4.3H6.5z M26.6,1.9c0.4-0.3,0.8-0.3,1-0.3c1.6,0.8,1.8,3.1,1.9,5.2h-4.2V6.6C25.3,3.5,26,2.3,26.6,1.9 M30.7,8V7.4
	c0-3.6-0.8-6-2.7-6.9l0,0c-0.1,0-0.1,0-0.2,0c-0.6-0.2-1.2-0.4-2-0.4H10.4C7.6,0,5.2,2.2,5,5.2v20.1H1.3v0.6c0,5.1,2.8,6.2,5.2,6.2
	h14.3c0.1,0,0.2,0,0.3,0c0.1,0,0.1,0,0.2,0h0.1v0c0.7-0.1,1.3-0.4,1.8-0.9c2.2-2.2,2.1-7.3,2.1-10.4c0-0.3,0-0.6,0-0.8V8H30.7z
	 M20.9,22h-9.1c-0.3,0-0.6,0.3-0.6,0.6s0.3,0.6,0.6,0.6h9.1c0.3,0,0.6-0.3,0.6-0.6S21.3,22,20.9,22 M8.8,22c-0.2,0-0.3,0.1-0.4,0.2
	c-0.1,0.1-0.2,0.3-0.2,0.4c0,0.2,0.1,0.3,0.2,0.4c0.1,0.1,0.3,0.2,0.4,0.2c0.2,0,0.3-0.1,0.4-0.2c0.1-0.1,0.2-0.3,0.2-0.4
	c0-0.2-0.1-0.3-0.2-0.4C9.1,22,8.9,22,8.8,22 M20.9,19.5h-9.1c-0.3,0-0.6,0.3-0.6,0.6c0,0.3,0.3,0.6,0.6,0.6h9.1
	c0.3,0,0.6-0.3,0.6-0.6C21.5,19.7,21.3,19.5,20.9,19.5 M8.8,19.5c-0.2,0-0.3,0.1-0.4,0.2s-0.2,0.3-0.2,0.4c0,0.2,0.1,0.3,0.2,0.4
	c0.1,0.1,0.3,0.2,0.4,0.2c0.2,0,0.3-0.1,0.4-0.2c0.1-0.1,0.2-0.3,0.2-0.4c0-0.2-0.1-0.3-0.2-0.4C9.1,19.6,8.9,19.5,8.8,19.5
	 M20.9,17h-9.1c-0.3,0-0.6,0.3-0.6,0.6s0.3,0.6,0.6,0.6h9.1c0.3,0,0.6-0.3,0.6-0.6S21.3,17,20.9,17 M8.8,17c-0.2,0-0.3,0.1-0.4,0.2
	c-0.1,0.1-0.2,0.3-0.2,0.4c0,0.2,0.1,0.3,0.2,0.4c0.1,0.1,0.3,0.2,0.4,0.2c0.2,0,0.3-0.1,0.4-0.2c0.1-0.1,0.2-0.3,0.2-0.4
	c0-0.2-0.1-0.3-0.2-0.4C9.1,17.1,8.9,17,8.8,17"/>
</svg>
